<svg width="512" height="512" viewBox="0 0 512 512" fill="none" xmlns="http://www.w3.org/2000/svg">
  <g id="logo">
    <!-- Linker figuur met opgeheven arm -->
    <path d="M170 60 C170 50, 175 45, 180 45 C185 45, 190 50, 190 60 C190 70, 185 75, 180 75 C175 75, 170 70, 170 60 Z" fill="#6FA9B0"/>
    <path d="M180 75 C180 75, 175 90, 170 110 C165 130, 155 150, 145 170 C135 190, 120 210, 100 220 C80 230, 55 235, 30 230 C20 228, 15 223, 12 218 C10 215, 11 212, 13 210 C15 208, 19 208, 25 210 C45 215, 70 212, 90 205 C110 198, 125 185, 135 170 C145 155, 152 138, 160 120 C165 108, 170 95, 175 85 C180 75, 180 75, 180 75 Z" fill="#6FA9B0"/>

    <!-- Centrale grote figuur -->
    <path d="M270 95 C280 85, 295 82, 305 90 C315 98, 315 115, 305 125 C295 135, 280 135, 270 125 C260 115, 260 105, 270 95 Z" fill="#6FA9B0"/>
    <path d="M285 125 C285 125, 280 145, 275 175 C270 205, 265 240, 262 275 C260 310, 260 345, 265 375 C268 395, 273 410, 278 420 C280 425, 283 428, 285 430 C287 432, 289 432, 291 430 C295 426, 300 418, 305 405 C315 375, 320 335, 325 295 C330 255, 333 220, 335 195 L340 140" fill="#6FA9B0"/>
    <path d="M285 150 C280 155, 265 165, 240 180 C215 195, 185 215, 160 240 C135 265, 120 290, 115 310 C112 325, 115 335, 125 340 C135 345, 148 343, 160 335 C180 320, 195 295, 210 270 C225 245, 240 220, 255 200 L275 175" fill="#6FA9B0"/>

    <!-- Rechter figuur met beweging -->
    <path d="M320 65 C320 55, 325 50, 335 52 C345 54, 350 62, 348 72 C346 82, 338 87, 328 85 C318 83, 318 75, 320 65 Z" fill="#6FA9B0"/>
    <path d="M340 75 C345 80, 360 95, 380 115 C400 135, 420 160, 435 185 C450 210, 460 235, 465 255 C468 270, 468 280, 465 285 C462 290, 456 292, 450 288 C440 280, 430 265, 420 245 C410 225, 400 200, 390 175 C380 150, 370 130, 360 115 C350 100, 340 85, 335 78 L340 75" fill="#6FA9B0"/>

    <!-- Rechter onderste cirkel/figuur -->
    <path d="M420 290 C430 280, 445 280, 455 290 C465 300, 465 315, 455 325 C445 335, 430 335, 420 325 C410 315, 410 300, 420 290 Z" fill="#6FA9B0"/>

    <!-- Linker onderste figuur -->
    <path d="M140 300 C150 290, 165 288, 175 295 C185 302, 187 315, 180 327 C173 339, 160 345, 148 340 C136 335, 130 320, 135 308 C137 303, 140 300, 140 300 Z" fill="#6FA9B0"/>
  </g>
</svg>
